<svg xmlns="http://www.w3.org/2000/svg" width="1024" height="1024" viewBox="0 0 1024 1024">
  <defs>
    <linearGradient id="bg" x1="164" y1="120" x2="858" y2="920" gradientUnits="userSpaceOnUse">
      <stop offset="0" stop-color="#f8fff9"/>
      <stop offset="0.55" stop-color="#edf8f1"/>
      <stop offset="1" stop-color="#dcefe4"/>
    </linearGradient>
    <linearGradient id="glass" x1="252" y1="194" x2="790" y2="860" gradientUnits="userSpaceOnUse">
      <stop offset="0" stop-color="#ffffff" stop-opacity="0.94"/>
      <stop offset="1" stop-color="#f7fffb" stop-opacity="0.38"/>
    </linearGradient>
    <linearGradient id="frame" x1="248" y1="212" x2="784" y2="842" gradientUnits="userSpaceOnUse">
      <stop offset="0" stop-color="#38b488"/>
      <stop offset="0.55" stop-color="#2d9a74"/>
      <stop offset="1" stop-color="#1d6d53"/>
    </linearGradient>
    <linearGradient id="accent" x1="340" y1="368" x2="700" y2="760" gradientUnits="userSpaceOnUse">
      <stop offset="0" stop-color="#62d4a7"/>
      <stop offset="1" stop-color="#248464"/>
    </linearGradient>
    <radialGradient id="glow" cx="0" cy="0" r="1" gradientUnits="userSpaceOnUse" gradientTransform="translate(300 228) rotate(40) scale(524 514)">
      <stop offset="0" stop-color="#ffffff" stop-opacity="0.95"/>
      <stop offset="0.42" stop-color="#c9f4dd" stop-opacity="0.28"/>
      <stop offset="1" stop-color="#c9f4dd" stop-opacity="0"/>
    </radialGradient>
    <filter id="shadow" x="181" y="150" width="662" height="720" filterUnits="userSpaceOnUse" color-interpolation-filters="sRGB">
      <feDropShadow dx="0" dy="48" stdDeviation="32" flood-color="#1b533f" flood-opacity="0.18"/>
    </filter>
    <filter id="soft" x="-20%" y="-20%" width="140%" height="140%">
      <feGaussianBlur stdDeviation="12"/>
    </filter>
  </defs>

  <g transform="translate(72 72) scale(0.859375)">
    <rect width="1024" height="1024" rx="240" fill="url(#bg)"/>

    <circle cx="788" cy="256" r="112" fill="#d5f3df" fill-opacity="0.72" filter="url(#soft)"/>
    <circle cx="276" cy="774" r="132" fill="#d9f7e3" fill-opacity="0.88" filter="url(#soft)"/>

    <g filter="url(#shadow)">
      <rect x="220" y="172" width="584" height="680" rx="168" fill="url(#frame)"/>
      <rect x="248" y="198" width="528" height="624" rx="144" fill="url(#glass)" stroke="#ffffff" stroke-opacity="0.7" stroke-width="4"/>
      <rect x="248" y="198" width="528" height="624" rx="144" fill="url(#glow)"/>

      <rect x="304" y="278" width="416" height="78" rx="32" fill="#effaf2" fill-opacity="0.82"/>
      <circle cx="354" cy="318" r="11" fill="#48c08f"/>
      <circle cx="392" cy="318" r="11" fill="#89d7b3"/>
      <rect x="438" y="306" width="186" height="24" rx="12" fill="#d8efe0"/>

      <rect x="304" y="392" width="416" height="300" rx="58" fill="#113d2f" fill-opacity="0.9"/>
      <path d="M406 468 500 542 406 616" fill="none" stroke="url(#accent)" stroke-width="44" stroke-linecap="round" stroke-linejoin="round"/>
      <rect x="536" y="596" width="128" height="36" rx="18" fill="#72dcb0"/>

      <rect x="336" y="726" width="164" height="24" rx="12" fill="#d6ecdc" fill-opacity="0.95"/>
      <rect x="524" y="726" width="100" height="24" rx="12" fill="#d6ecdc" fill-opacity="0.72"/>
    </g>

    <path d="M274 294c74-76 162-120 290-132" fill="none" stroke="#ffffff" stroke-opacity="0.5" stroke-width="24" stroke-linecap="round"/>
  </g>
</svg>
